PathFileType	4	(X/Y/Z)	6_2_43_p1_0-343.trc
DataRate	CameraRate	NumFrames	NumMarkers	Units	OrigDataRate	OrigDataStartFrame	OrigNumFrames
59.0	59.0	7	27	m	59.0	172	344
Frame#	Time	RHip			RKnee			RAnkle			RBigToe			RSmallToe			RHeel			LHip			LKnee			LAnkle			LBigToe			LSmallToe			LHeel			Neck			Head			Nose			RShoulder			RElbow			RWrist			RThumb			RIndex			RPinky			LShoulder			LElbow			LWrist			LThumb			LIndex			LPinky			
		X1	Y1	Z1	X2	Y2	Z2	X3	Y3	Z3	X4	Y4	Z4	X5	Y5	Z5	X6	Y6	Z6	X7	Y7	Z7	X8	Y8	Z8	X9	Y9	Z9	X10	Y10	Z10	X11	Y11	Z11	X12	Y12	Z12	X13	Y13	Z13	X14	Y14	Z14	X15	Y15	Z15	X16	Y16	Z16	X17	Y17	Z17	X18	Y18	Z18	X19	Y19	Z19	X20	Y20	Z20	X21	Y21	Z21	X22	Y22	Z22	X23	Y23	Z23	X24	Y24	Z24	X25	Y25	Z25	X26	Y26	Z26	X27	Y27	Z27	
172	2.9152542372881354	0.24485233251692445	0.43054410389702324	0.7485845320148166	0.29551021591317156	0.4555962897508453	1.1520380197721165	0.2711182702038031	0.5815063380942453	1.5282126170814692	0.27316537456455714	0.3535972521516052	1.5114840846608912	0.33070306646018477	0.4212952774253242	1.531636554175868	0.2509145593051149	0.6136306024177612	1.58106492450263	0.0440863228578511	0.43981551788399187	0.7667355677613704	0.05874156977810542	0.44273768877202835	1.1533159213827813	0.10362961114091718	0.5318010295762634	1.5173224457062042	0.1073010109893899	0.3986440647985309	1.5607944225358152	0.05954200085029676	0.39280881021689684	1.5272027268020831	0.11159209077368529	0.6299936828490241	1.5883781691113852	0.101717640896819	0.4556595569259422	0.21822542286820526	0.10426211905049304	0.42934122706130035	-0.031257608777494145	0.1034994751946097	0.35808404077678724	0.10290281277761155	0.24133204122782648	0.44101775924715936	0.269262171587416	0.31695468738489424	0.4065198263102443	0.5010392799850213	0.2848780069927979	0.3384765764402457	0.7093209052542228	0.20725015570285465	0.34711424170670885	0.817772097168834	0.21242837746185161	0.335999292701745	0.8259179072493731	0.25394893826481635	0.36787511226890596	0.8293461554388079	-0.042481328846568286	0.4896876318026624	0.2854654082238073	-0.07745117806097583	0.42750686612895344	0.5183178007891371	0.0052472774147808085	0.35443698156747727	0.7241680141371779	0.09619626364459558	0.33980276675215215	0.7783848319214147	0.08964757218154172	0.347020234604655	0.8268741698883271	0.03469948554654615	0.3957421738510448	0.8596273524303433
173	2.9322033898305087	0.24427370793804687	0.4314064389634696	0.7452223675758606	0.29549661876157096	0.4555981372872677	1.1520970751237631	0.27035659065219814	0.5819683915363167	1.5335994816840717	0.27312629041713976	0.3536240004827627	1.5115041602955175	0.33068901341861356	0.4213019330150735	1.5316849333001492	0.25227305380912773	0.6150460213237283	1.586773499046722	0.04355744023704021	0.44004976101447796	0.7707045560646228	0.05809367826009278	0.44302949881601145	1.1580491403343725	0.10059503252716202	0.5177318827469308	1.509738658849904	0.10283428088665501	0.39766294441104916	1.5609228396866761	0.059510893869623424	0.3926425300008303	1.527273594632258	0.11163747018147649	0.6300415165860395	1.5883152605752664	0.10226234307346102	0.4566924852747237	0.22203479069825546	0.10425010227013219	0.42940276918956577	-0.03125441860350569	0.10398439169426808	0.3593712077092727	0.10659115005263477	0.24613583898844144	0.4283616192507086	0.27036873609371787	0.3128351929634562	0.3952657546540761	0.4950229277648886	0.2849618924099338	0.3386184623109657	0.7093275409501977	0.20744368392571017	0.3473931590953372	0.8177188729492908	0.21663359025440698	0.33745092873879073	0.8258348994920167	0.26147074193486064	0.38192522628122266	0.8374865028694394	-0.042510878126530476	0.48979704363595994	0.2855819986110852	-0.07294283605804988	0.4322901895775851	0.5227359351248133	0.0052177754886845226	0.35449742811806306	0.7243653156537364	0.08782179358668633	0.35083387660008253	0.7829932649539791	0.0895397404285749	0.3477046380399873	0.8277066532324578	0.0345372136445522	0.39619190771508633	0.8602803609265086
174	2.9491525423728815	0.24469560724305753	0.4307782841817453	0.7487086454085864	0.2948931922835048	0.4571276608604415	1.1487295296692746	0.2697513002342066	0.5836511068070944	1.5300210659763451	0.2725574125045944	0.35551446425173067	1.5079984075302042	0.3307325740690487	0.42128126727274096	1.5315644816350589	0.2523391014241287	0.6156388913064239	1.5869916998185922	0.043621969871290286	0.4401991908716365	0.7709220671411426	0.05811786665594206	0.4431751054765902	1.1580966662449959	0.10360487479940614	0.5321818531937752	1.5175836779526053	0.10777192783519349	0.3842921186706546	1.5518361379102252	0.055058669874631976	0.39035169577817913	1.5262475172703385	0.11163006837401353	0.6305883818825039	1.588409515276571	0.09763625844921801	0.4535421608517089	0.218220063556183	0.10433369166558794	0.4295330560283459	-0.03127051934490905	0.10751695771973095	0.36018036907820805	0.10267507907530557	0.24554160257872215	0.42718750451073184	0.2665807417043687	0.3129445832047636	0.3942010651531192	0.502211356325155	0.2884657486494452	0.3496244151754216	0.7088800611965611	0.207066148004463	0.34836206807851183	0.8146724312235027	0.21666949174374625	0.33751939886800936	0.8257394458097452	0.2619992781458833	0.36711848813331527	0.8279671596998779	-0.04256347475974661	0.4896843804804555	0.2854512985917793	-0.07557457180102155	0.4194864440462819	0.516279276186434	0.005839593773843433	0.35395984574546474	0.7279723541589224	0.08759837606849757	0.35113369893386676	0.7829229923270431	0.0893274880805812	0.3479272803591316	0.8278807603876972	0.034586920389564305	0.3964564851138761	0.8601483915618285
175	2.9661016949152543	0.2442584749006023	0.4316231439387626	0.7452814469772573	0.2953968189320478	0.45566220661416434	1.1522147512280219	0.26976722966435746	0.583608906856925	1.5299081735211784	0.273336127588317	0.35510968553323274	1.5036378670552772	0.3308463296538219	0.4217045533336892	1.5318679392459873	0.25226510452858547	0.6147972284383739	1.586663102511167	0.043661215247854934	0.4399284213483893	0.7706359485861087	0.05815571491197736	0.44312927722285417	1.1580064355487687	0.10362683360264233	0.5322052402577133	1.5175020730338002	0.10771830582525257	0.384426969534515	1.5519668672826545	0.05501734376436204	0.39028840841779483	1.5263141471245978	0.11237928191891253	0.6287369788363204	1.5921831161941464	0.09816464232767837	0.4548221600997451	0.21851077812505493	0.10442180127614734	0.4295933353567726	-0.0312610058277019	0.10750206046397175	0.36019274472403323	0.10270532370962064	0.24614589533671052	0.4284865575260291	0.2703857541526792	0.3090484675550105	0.39290636093708564	0.49859740051976964	0.2852973465918399	0.3383335245073209	0.7054925539468453	0.2080217110805549	0.3496909888641653	0.8189940247893556	0.21671449241766438	0.33764201426805224	0.8257491972290804	0.2628511339272636	0.35676087891447816	0.8242562216609076	-0.04258539338674115	0.48982178606779286	0.2854458374425252	-0.07495912350655728	0.42054022360032967	0.5202062881020209	0.008289787281823483	0.36531120633078096	0.7315962257784987	0.08780819290104529	0.3510456229557854	0.783101855190681	0.0895041768491603	0.3478457824168432	0.8278073028030616	0.03460541333764863	0.39635814095909383	0.860399484221318
176	2.983050847457627	0.24454255557080176	0.4298307748071718	0.7484397853294504	0.29486538888052477	0.45687905664574513	1.1491919779154	0.27061399894635724	0.5831330830080068	1.5244675083753751	0.2739171149958214	0.35321172168093706	1.5070827869967838	0.33081918556153067	0.42165289288310237	1.5318427446404164	0.25574000413255216	0.5969824037231781	1.5709023367969548	0.04401567057274676	0.4397896871213991	0.7665391057425515	0.05883288595349937	0.4431469249278583	1.1533369017868713	0.10362290661831548	0.5321474858416392	1.517507118194474	0.10791433615296875	0.3839776225168519	1.5517837078974688	0.055069033832367574	0.38994293266987756	1.5264813089505807	0.11238389234879044	0.6285370885727649	1.5920578025472365	0.09762105513754778	0.4537886610456084	0.21464203477613605	0.10435616535411912	0.429305456823495	-0.0313793366827171	0.10759247045207643	0.3602994233800639	0.10267296060428062	0.2454893389904605	0.4273066185478518	0.26660122693126675	0.30821357000062877	0.393884557619488	0.4989372621099807	0.28813062247980703	0.3499792329409149	0.7127718924361877	0.20840831429496087	0.3488089782322958	0.8221404694116436	0.21966340545473315	0.34881337194979123	0.8299273307567722	0.2701176797134815	0.3951491869089947	0.8454036345152539	-0.04259800395607581	0.489751578693283	0.2854938788923592	-0.07555004644820777	0.41902232453316013	0.5161555621493539	0.00828577407195045	0.36527487773263007	0.7315921753961104	0.09134886693113811	0.3522272178909583	0.7831092657898241	0.08948018171365976	0.34746689580173196	0.8275918612502073	0.034387152008939555	0.39610133127919117	0.8601587762949164
177	3.0	0.2441204584707664	0.43077150680155485	0.7450060801896944	0.2948565413698084	0.4569023720597849	1.1492456290902648	0.2706081718133959	0.5830354305341369	1.5245276389189626	0.2731889498389057	0.3537294016898338	1.5115522264967751	0.33078797779878905	0.42163226179719726	1.531919858686211	0.2570990288402566	0.5988262201982489	1.5766632273435925	0.04408950353323412	0.4397291144077916	0.7664688719971077	0.05764185106269369	0.4444484466241884	1.154811790283193	0.1036292598477908	0.5320433189482567	1.5174208346648255	0.10274049285494204	0.3973831528564471	1.5607413233155256	0.054965834677399045	0.3903125696304355	1.5264275543945205	0.11242406663104686	0.6284298338458914	1.5917833662804386	0.09759283097850284	0.4538785394003384	0.21463302642629004	0.10438804496224255	0.42942344580705016	-0.031338075483427215	0.10760088841703686	0.3601839673433824	0.10267753688713196	0.2454214543264209	0.4272968215225283	0.2665182619766414	0.30813065610588003	0.39397917876950894	0.4990085045564207	0.2851700200414196	0.33860185987389196	0.7056726244450525	0.20836302876768484	0.3485946481015201	0.8220185818418528	0.216951551176984	0.33758453225255775	0.8261491657755716	0.26680148911292567	0.38303105446700053	0.8414194582269511	-0.042570289678188135	0.4897212737808171	0.28546757493317637	-0.07485166468191705	0.4206917958184622	0.5201329216455858	0.0059310028657686585	0.35377914073264105	0.7281211524074819	0.09625926927022041	0.3401086019293546	0.7786890155935762	0.08554596970611324	0.345823091472606	0.8275538833807338	0.03435640112552994	0.39583883759185684	0.8599938121087375
178	3.016949152542373	0.24421250817467519	0.43089615838485945	0.7451807704928844	0.2944392392479693	0.4579780952125076	1.1465417027570666	0.2706085052555759	0.5830538835761538	1.5246845236415987	0.2731494558589984	0.35372065080143794	1.511526267592392	0.3308177165906613	0.42157056220068323	1.531897061786216	0.2538482043679897	0.617389443712706	1.5928035603648798	0.04403768298560558	0.43978711037797574	0.7665965657407413	0.05766402534697899	0.4442740091649049	1.154841631835606	0.10357344927596332	0.5320392352761946	1.5177418309049844	0.10767991401051426	0.38406940562096636	1.5516997444980412	0.054979641797759306	0.3902676766365873	1.526192947414006	0.11234509869932674	0.6284372165030871	1.5921929849415062	0.09758404978758624	0.4539342265367555	0.21459733398334396	0.10430081399287937	0.42959965847816683	-0.031303100919312134	0.10762172313876872	0.360430016287668	0.10262826529614669	0.24127802132672266	0.4408263758247236	0.26923403523913925	0.30441262064771313	0.3819796408713	0.4964532989764122	0.2883729424604796	0.35016414142395447	0.7091179573652115	0.20856686382658202	0.3490075640439379	0.8222780544703654	0.21999486883292763	0.349358309176157	0.8302623414878827	0.2742862546873369	0.4082615467325615	0.8460580809010791	-0.042547405656918044	0.4897235373957707	0.28552572859738257	-0.07279707801886932	0.4322098908707257	0.5227770338796394	0.0060010242333791595	0.35389459828544434	0.7282483139397107	0.09657452314578271	0.340325118065829	0.7785479613913735	0.08948791340638297	0.3473654228993748	0.8312074361520184	0.03380076773436293	0.3959139906304601	0.863549752198895
